<?xml version="1.0" standalone="no"?><svg xmlns="http://www.w3.org/2000/svg" viewBox="0 0 1440 320"><path fill="#fff" fill-opacity="1" d="M0,224L24,234.7C48,245,96,267,144,250.7C192,235,240,181,288,144C336,107,384,85,432,80C480,75,528,85,576,122.7C624,160,672,224,720,213.3C768,203,816,117,864,101.3C912,85,960,139,1008,133.3C1056,128,1104,64,1152,42.7C1200,21,1248,43,1296,64C1344,85,1392,107,1416,117.3L1440,128L1440,320L1416,320C1392,320,1344,320,1296,320C1248,320,1200,320,1152,320C1104,320,1056,320,1008,320C960,320,912,320,864,320C816,320,768,320,720,320C672,320,624,320,576,320C528,320,480,320,432,320C384,320,336,320,288,320C240,320,192,320,144,320C96,320,48,320,24,320L0,320Z"></path></svg>