<?xml version="1.0" standalone="no"?><svg xmlns="http://www.w3.org/2000/svg" viewBox="0 0 1440 320"><path fill="#fff" fill-opacity="1" d="M0,224L12,208C24,192,48,160,72,160C96,160,120,192,144,218.7C168,245,192,267,216,266.7C240,267,264,245,288,208C312,171,336,117,360,128C384,139,408,213,432,213.3C456,213,480,139,504,106.7C528,75,552,85,576,90.7C600,96,624,96,648,133.3C672,171,696,245,720,272C744,299,768,277,792,224C816,171,840,85,864,90.7C888,96,912,192,936,208C960,224,984,160,1008,128C1032,96,1056,96,1080,128C1104,160,1128,224,1152,229.3C1176,235,1200,181,1224,149.3C1248,117,1272,107,1296,106.7C1320,107,1344,117,1368,128C1392,139,1416,149,1428,154.7L1440,160L1440,320L1428,320C1416,320,1392,320,1368,320C1344,320,1320,320,1296,320C1272,320,1248,320,1224,320C1200,320,1176,320,1152,320C1128,320,1104,320,1080,320C1056,320,1032,320,1008,320C984,320,960,320,936,320C912,320,888,320,864,320C840,320,816,320,792,320C768,320,744,320,720,320C696,320,672,320,648,320C624,320,600,320,576,320C552,320,528,320,504,320C480,320,456,320,432,320C408,320,384,320,360,320C336,320,312,320,288,320C264,320,240,320,216,320C192,320,168,320,144,320C120,320,96,320,72,320C48,320,24,320,12,320L0,320Z"></path></svg>