<?xml version="1.0" standalone="no"?><svg xmlns="http://www.w3.org/2000/svg" viewBox="0 0 1440 320"><path fill="#fff" fill-opacity="0.8" d="M0,96L12.6,90.7C25.3,85,51,75,76,80C101.1,85,126,107,152,122.7C176.8,139,202,149,227,170.7C252.6,192,278,224,303,229.3C328.4,235,354,213,379,181.3C404.2,149,429,107,455,106.7C480,107,505,149,531,176C555.8,203,581,213,606,192C631.6,171,657,117,682,96C707.4,75,733,85,758,112C783.2,139,808,181,834,208C858.9,235,884,245,909,261.3C934.7,277,960,299,985,304C1010.5,309,1036,299,1061,272C1086.3,245,1112,203,1137,176C1162.1,149,1187,139,1213,165.3C1237.9,192,1263,256,1288,250.7C1313.7,245,1339,171,1364,128C1389.5,85,1415,75,1427,69.3L1440,64L1440,320L1427.4,320C1414.7,320,1389,320,1364,320C1338.9,320,1314,320,1288,320C1263.2,320,1238,320,1213,320C1187.4,320,1162,320,1137,320C1111.6,320,1086,320,1061,320C1035.8,320,1011,320,985,320C960,320,935,320,909,320C884.2,320,859,320,834,320C808.4,320,783,320,758,320C732.6,320,707,320,682,320C656.8,320,632,320,606,320C581.1,320,556,320,531,320C505.3,320,480,320,455,320C429.5,320,404,320,379,320C353.7,320,328,320,303,320C277.9,320,253,320,227,320C202.1,320,177,320,152,320C126.3,320,101,320,76,320C50.5,320,25,320,13,320L0,320Z"></path></svg>